<svg width="20" height="20" viewBox="0 0 20 20" fill="none" xmlns="http://www.w3.org/2000/svg">
    <path fill-rule="evenodd" clip-rule="evenodd" d="M1.57364 7.54553C2.19239 6.20907 3.03672 5.28012 3.93109 4.3815C4.82546 3.48289 5.99082 2.5197 7.22921 1.79859C9.0509 0.737835 10.5689 1.28157 11.8243 1.96002C13.0798 2.63849 14.1433 3.45056 15.0377 4.3492C15.9321 5.24784 16.9029 6.57948 17.2532 7.54023C17.8975 9.30735 18.0679 10.481 17.1907 12.1302C16.5769 13.2841 15.8678 14.105 14.9734 15.0037C14.8313 15.1465 14.6873 15.2939 14.541 15.4437L14.5409 15.4439L14.5409 15.4439C13.7668 16.2366 12.9263 17.0974 11.9288 17.7116C10.5326 18.5712 8.74122 18.3199 7.06853 17.522C5.81463 16.9238 5.16727 16.322 4.2729 15.4234C3.3785 14.5247 2.23426 13.236 1.70218 12.1302C0.926753 10.5187 0.795579 9.22597 1.57364 7.54553ZM2.38393 7.65678C2.92369 6.49099 3.62123 5.56087 4.40142 4.77699C5.18161 3.9931 6.17453 3.14878 7.3174 2.64361C8.44113 2.14687 10.4246 2.30947 11.3259 2.78443C12.2271 3.25938 13.3488 4.08467 14.129 4.86856C14.9092 5.65245 15.905 6.75528 16.2105 7.59336C16.7725 9.13486 17.0831 10.0993 16.6326 11.6267C16.3196 12.6874 15.3786 13.8362 14.6291 14.6201L14.4813 14.7751C13.6892 15.6068 12.2571 17.1103 11.2634 17.5141C9.74946 18.1294 8.25006 17.455 6.94675 16.663C5.84593 15.9941 5.21138 15.3734 4.49267 14.5895C3.77395 13.8056 2.9602 12.6207 2.49606 11.6561C1.81967 10.2504 1.70522 9.12268 2.38393 7.65678Z" fill="#28ACD4"/>
    <path fill-rule="evenodd" clip-rule="evenodd" d="M18.4236 7.54602C17.8048 6.20956 16.9605 5.2806 16.0661 4.38199C15.1718 3.48338 14.0064 2.52019 12.768 1.79908C10.9463 0.738323 9.42831 1.28205 8.17288 1.96051C6.91744 2.63898 5.85388 3.45105 4.95948 4.34969C4.0651 5.24833 3.09429 6.57997 2.74402 7.54072C2.09974 9.30784 1.92931 10.4815 2.80653 12.1307C3.4203 13.2846 4.12941 14.1055 5.02378 15.0041C5.16595 15.147 5.30987 15.2944 5.45618 15.4442L5.45635 15.4444L5.45636 15.4444C6.23042 16.2371 7.07096 17.0979 8.06838 17.7121C9.46462 18.5717 11.256 18.3204 12.9287 17.5224C14.1826 16.9243 14.83 16.3225 15.7243 15.4239C16.6187 14.5252 17.763 13.2365 18.295 12.1307C19.0705 10.5192 19.2016 9.22646 18.4236 7.54602ZM17.6149 7.65807C17.0751 6.49227 16.3776 5.56216 15.5974 4.77827C14.8172 3.99438 13.8243 3.15007 12.6814 2.6449C11.5577 2.14816 9.57421 2.31076 8.67297 2.78572C7.77175 3.26067 6.65005 4.08596 5.86986 4.86985C5.08967 5.65373 4.09385 6.75656 3.78832 7.59464C3.22635 9.13614 2.91568 10.1006 3.36626 11.628C3.67922 12.6887 4.62026 13.8375 5.36971 14.6214L5.51755 14.7764C6.30965 15.6081 7.74172 17.1116 8.7354 17.5154C10.2494 18.1306 11.7488 17.4563 13.0521 16.6643C14.1529 15.9953 14.7874 15.3747 15.5062 14.5908C16.2249 13.8069 17.0386 12.6219 17.5028 11.6574C18.1792 10.2517 18.2936 9.12396 17.6149 7.65807Z" fill="#28ACD4"/>
    <mask id="mask0_1373_14439" style="mask-type:luminance" maskUnits="userSpaceOnUse" x="0" y="0" width="20" height="20">
        <path fill-rule="evenodd" clip-rule="evenodd" d="M0.0012207 10.0281L0.0012207 9.88175C0.0130345 9.11192 0.211571 8.325 0.624583 7.44814C1.36347 5.87905 2.47303 4.78848 3.54106 3.73332C4.60931 2.67829 5.89991 1.54741 7.37892 0.700843C9.55454 -0.544593 11.3675 0.0938482 12.8669 0.890397C14.3662 1.68691 15.6365 2.64039 16.7047 3.6954C17.7728 4.75043 18.9323 6.31399 19.3507 7.44198C20.1201 9.51664 20.3236 10.8946 19.276 12.8308C18.5429 14.1856 17.696 15.1495 16.6278 16.2045C15.5597 17.2596 14.2811 18.3001 12.8669 19.1612C10.8875 20.3666 9.13983 20.1864 7.18698 19.1612C5.63165 18.3445 4.91644 17.7523 3.84815 16.6972C2.78006 15.6422 1.41354 14.1291 0.778036 12.8308C0.289589 11.833 0.0151945 10.9394 0.0012207 10.0281H0.0012207ZM1.119 7.46404C0.308286 9.18507 0.444881 10.5089 1.25283 12.1594C1.80718 13.292 2.99923 14.6118 3.93098 15.5322C4.86283 16.4525 5.48672 16.9691 6.84345 17.6815C8.54704 18.5758 10.0715 18.733 11.7982 17.6815C13.0319 16.9303 14.1472 16.0227 15.0789 15.1023C16.0107 14.182 16.7495 13.3412 17.389 12.1594C18.3028 10.4704 18.1253 9.26836 17.4541 7.4586C17.0891 6.47466 16.0778 5.11072 15.1459 4.19044C14.2142 3.27007 13.1062 2.43834 11.7982 1.74349C10.4904 1.04868 8.90876 0.49174 7.0109 1.57813C5.72078 2.31668 4.59492 3.30309 3.66308 4.2234C2.73143 5.14389 1.76353 6.09521 1.119 7.46404Z" fill="white"/>
    </mask>
    <g mask="url(#mask0_1373_14439)">
        <path d="M0.00112915 20.0018L55.5627 20.0018V-0.000488281L0.00112915 -0.000488281L0.00112915 20.0018Z" fill="#28ACD4"/>
    </g>
    <mask id="mask1_1373_14439" style="mask-type:luminance" maskUnits="userSpaceOnUse" x="1" y="1" width="19" height="18">
        <path fill-rule="evenodd" clip-rule="evenodd" d="M1.59198 10.0213V9.89833C1.60286 9.25167 1.78563 8.59066 2.16585 7.85409C2.84607 6.53606 3.86755 5.61998 4.85078 4.73365C5.83421 3.84742 7.02234 2.89748 8.38393 2.18636C10.3868 1.1402 12.0559 1.67649 13.4362 2.34559C14.8165 3.01466 15.9859 3.81559 16.9693 4.70179C17.9526 5.58802 19.02 6.90141 19.4052 7.84892C20.1135 9.59163 20.3009 10.7491 19.3364 12.3755C18.6616 13.5136 17.8819 14.3232 16.8985 15.2094C15.9152 16.0957 14.7381 16.9697 13.4362 17.6931C11.6139 18.7056 10.005 18.5542 8.20723 17.6931C6.77539 17.007 6.11696 16.5096 5.13349 15.6233C4.1502 14.7371 2.89217 13.4661 2.30712 12.3755C1.85745 11.5374 1.60484 10.7867 1.59198 10.0213H1.59198ZM2.61486 7.86637C1.86851 9.31204 1.99426 10.4241 2.73806 11.8105C3.2484 12.7618 4.34581 13.8705 5.20358 14.6436C6.06145 15.4167 6.63581 15.8506 7.88482 16.4491C9.45315 17.2003 10.8566 17.3323 12.4462 16.4491C13.5819 15.8181 14.6087 15.0556 15.4664 14.2825C16.3243 13.5095 17.0044 12.8032 17.5931 11.8105C18.4344 10.3917 18.2709 9.382 17.6531 7.8618C17.3171 7.0353 16.386 5.88959 15.5281 5.11655C14.6704 4.34344 13.6503 3.64479 12.4462 3.06112C11.2422 2.47747 9.78615 2.00964 8.03897 2.92221C6.85128 3.54259 5.81481 4.37118 4.95695 5.14424C4.09926 5.91745 3.20822 6.71656 2.61486 7.86637Z" fill="white"/>
    </mask>
    <g mask="url(#mask1_1373_14439)">
        <path d="M1.59189 18.3991L52.7422 18.3991V1.59717L1.59189 1.59717L1.59189 18.3991Z" fill="#28ACD4"/>
    </g>
    <mask id="mask2_1373_14439" style="mask-type:luminance" maskUnits="userSpaceOnUse" x="1" y="0" width="18" height="17">
        <path fill-rule="evenodd" clip-rule="evenodd" d="M1.59036 8.37763V8.5006C1.6003 9.14725 1.76731 9.80827 2.11474 10.5448C2.7363 11.8629 3.66968 12.7789 4.56812 13.6653C5.46674 14.5515 6.55241 15.5014 7.79657 16.2126C9.62673 17.2587 11.1518 16.7224 12.4131 16.0533C13.6744 15.3843 14.7429 14.5833 15.6415 13.6971C16.54 12.8109 17.5154 11.4975 17.8674 10.55C18.5146 8.80729 18.6858 7.64978 17.8045 6.02338C17.1879 4.88534 16.4755 4.0757 15.5768 3.1895C14.6783 2.30325 13.6028 1.42921 12.4131 0.705849C10.748 -0.306639 9.27787 -0.155281 7.6351 0.705849C6.32675 1.39189 5.7251 1.88936 4.82645 2.77559C3.92796 3.66182 2.77842 4.93279 2.24383 6.02338C1.83294 6.86152 1.60212 7.6122 1.59036 8.37763H1.59036ZM2.52547 10.5282C1.84349 9.08249 1.95839 7.97045 2.63804 6.58406C3.10437 5.6327 4.10714 4.52401 4.89094 3.7509C5.67482 2.97784 6.19965 2.5439 7.34094 1.94545C8.77402 1.19424 10.0564 1.06223 11.5089 1.94545C12.5467 2.57646 13.4849 3.33891 14.2687 4.11202C15.0526 4.88503 15.6741 5.59132 16.2119 6.58406C16.9807 8.00278 16.8314 9.01253 16.2668 10.5327C15.9597 11.3592 15.109 12.5049 14.3251 13.278C13.5413 14.0511 12.6092 14.7497 11.5089 15.3334C10.4088 15.9171 9.0783 16.3849 7.4818 15.4723C6.39654 14.8519 5.44945 14.0234 4.66558 13.2503C3.88186 12.4771 3.06766 11.678 2.52547 10.5282Z" fill="white"/>
    </mask>
    <g mask="url(#mask2_1373_14439)">
        <path d="M1.59036 -0.000679016L48.3294 -0.000679016V16.8013L1.59036 16.8013L1.59036 -0.000679016Z" fill="#28ACD4"/>
    </g>
    <mask id="mask3_1373_14439" style="mask-type:luminance" maskUnits="userSpaceOnUse" x="0" y="0" width="20" height="20">
        <path fill-rule="evenodd" clip-rule="evenodd" d="M19.9965 10.0291V9.88273C19.9847 9.1129 19.7862 8.32598 19.3732 7.44911C18.6343 5.88003 17.5247 4.78946 16.4567 3.7343C15.3884 2.67926 14.0978 1.54838 12.6188 0.70182C10.4432 -0.543616 8.63022 0.0948248 7.13082 0.891374C5.63151 1.68788 4.36127 2.64137 3.29309 3.69638C2.22494 4.75141 1.06545 6.31497 0.64706 7.44296C-0.122332 9.51762 -0.325888 10.8956 0.721777 12.8318C1.45481 14.1866 2.30169 15.1505 3.36994 16.2055C4.43806 17.2605 5.71664 18.301 7.13082 19.1622C9.11026 20.3675 10.8579 20.1873 12.8108 19.1622C14.3661 18.3455 15.0813 17.7532 16.1496 16.6982C17.2177 15.6432 18.5842 14.1301 19.2197 12.8318C19.7082 11.834 19.9825 10.9404 19.9965 10.0291H19.9965ZM18.8782 7.46455C19.689 9.18558 19.5524 10.5094 18.7444 12.1599C18.1901 13.2925 16.998 14.6123 16.0663 15.5327C15.1344 16.453 14.5105 16.9696 13.1538 17.6821C11.4502 18.5764 9.92577 18.7335 8.19905 17.6821C6.96539 16.9309 5.85006 16.0232 4.91832 15.1028C3.9865 14.1826 3.24771 13.3417 2.60829 12.1599C1.69443 10.4709 1.87195 9.26887 2.54311 7.45911C2.9081 6.47518 3.91948 5.11123 4.85132 4.19096C5.78307 3.27059 6.89108 2.43885 8.19905 1.74401C9.50689 1.04919 11.0885 0.492254 12.9863 1.57865C14.2765 2.31719 15.4023 3.3036 16.3342 4.22391C17.2658 5.14441 18.2337 6.09572 18.8782 7.46455Z" fill="white"/>
    </mask>
    <g mask="url(#mask3_1373_14439)">
        <path d="M19.9964 20.0028L-35.5651 20.0028V0.000488281L19.9964 0.000488281V20.0028Z" fill="#28ACD4"/>
    </g>
    <mask id="mask4_1373_14439" style="mask-type:luminance" maskUnits="userSpaceOnUse" x="2" y="2" width="15" height="16">
        <path fill-rule="evenodd" clip-rule="evenodd" d="M16.2552 11.7519C15.7361 12.8989 14.9568 13.6961 14.2066 14.4674C13.4563 15.2386 12.5498 16.0652 11.5109 16.6841C9.98278 17.5945 8.70938 17.1279 7.65624 16.5456C6.6031 15.9633 5.71092 15.2663 4.96064 14.4951C4.21038 13.7238 3.396 12.581 3.10217 11.7564C2.56171 10.2398 2.41874 9.23246 3.15461 7.8171C3.66948 6.82671 4.2643 6.12219 5.01458 5.35095C5.76484 4.5797 6.66291 3.8191 7.65624 3.18963C9.0466 2.30852 10.2425 2.50476 11.6457 3.18963C12.6976 3.70302 13.2406 4.21949 13.9909 4.99073C14.7412 5.76198 15.701 6.86806 16.1474 7.8171C16.7978 9.20015 16.9079 10.3096 16.2552 11.7519ZM15.5914 11.6582C16.1608 10.4001 16.0648 9.43228 15.4974 8.22581C15.108 7.39794 14.2707 6.43309 13.6162 5.76032C12.9618 5.08753 12.5235 4.70992 11.5705 4.18915C10.374 3.5354 8.57641 3.8601 8.09039 4.18915C7.30208 4.72292 6.44049 5.40177 5.78602 6.07455C5.13155 6.74732 4.61267 7.36188 4.16351 8.22581C3.52162 9.46048 3.64633 10.3392 4.11777 11.6621C4.37409 12.3814 5.08449 13.3784 5.73896 14.0512C6.39346 14.7239 7.33439 15.4322 8.09039 15.8399C8.84641 16.2475 10.5103 16.387 11.4529 15.9607C12.4116 15.5271 13.1824 14.7667 13.8369 14.0939C14.4914 13.4211 15.1386 12.6587 15.5914 11.6582Z" fill="white"/>
    </mask>
    <g mask="url(#mask4_1373_14439)">
        <path d="M-0.00152588 20.0048L55.56 20.0048V0.00244141L-0.00152588 0.00244141L-0.00152588 20.0048Z" fill="#28ACD4"/>
    </g>
    <mask id="mask5_1373_14439" style="mask-type:luminance" maskUnits="userSpaceOnUse" x="3" y="2" width="15" height="16">
        <path fill-rule="evenodd" clip-rule="evenodd" d="M3.74189 11.7519C4.26096 12.8989 5.04027 13.6961 5.79052 14.4674C6.5408 15.2386 7.44728 16.0652 8.48614 16.6841C10.0143 17.5945 11.2877 17.1279 12.3408 16.5456C13.394 15.9633 14.2861 15.2663 15.0364 14.4951C15.7867 13.7238 16.6011 12.581 16.8949 11.7564C17.4354 10.2398 17.5783 9.23246 16.8425 7.8171C16.3276 6.82671 15.7328 6.12219 14.9825 5.35095C14.2322 4.5797 13.3342 3.8191 12.3408 3.18963C10.9505 2.30852 9.75453 2.50476 8.35134 3.18963C7.29948 3.70302 6.75645 4.21949 6.0062 4.99073C5.25592 5.76198 4.29607 6.86806 3.84971 7.8171C3.19924 9.20015 3.0892 10.3096 3.74189 11.7519ZM4.40325 11.6592C3.83391 10.4011 3.92989 9.43331 4.49732 8.22684C4.88669 7.39897 5.72397 6.43412 6.37845 5.76135C7.03294 5.08856 7.47115 4.71095 8.4242 4.19018C9.62067 3.53643 11.4183 3.86113 11.9043 4.19018C12.6926 4.72395 13.5542 5.4028 14.2087 6.07558C14.8631 6.74834 15.382 7.36291 15.8312 8.22684C16.4731 9.46151 16.3484 10.3402 15.8769 11.6632C15.6206 12.3825 14.9102 13.3794 14.2557 14.0522C13.6012 14.725 12.6603 15.4333 11.9043 15.8409C11.1483 16.2485 9.48444 16.3881 8.54176 15.9617C7.58305 15.5282 6.81228 14.7677 6.15781 14.0949C5.50333 13.4221 4.85606 12.6598 4.40325 11.6592Z" fill="white"/>
    </mask>
    <g mask="url(#mask5_1373_14439)">
        <path d="M19.9933 20.0057L-35.5683 20.0057V0.00341797L19.9933 0.00341797V20.0057Z" fill="#28ACD4"/>
    </g>
    <mask id="mask6_1373_14439" style="mask-type:luminance" maskUnits="userSpaceOnUse" x="2" y="2" width="17" height="17">
        <path fill-rule="evenodd" clip-rule="evenodd" d="M17.6864 12.58C17.0846 13.8823 16.1809 14.7874 15.3111 15.6632C14.4411 16.5388 13.3899 17.4774 12.1854 18.18C10.4135 19.2137 8.9369 18.6838 7.71572 18.0227C6.49463 17.3616 5.4601 16.5702 4.59012 15.6946C3.72018 14.819 2.7758 13.5213 2.4351 12.5851C1.80848 10.8633 1.93594 9.78474 2.64495 8.19437C3.1689 7.01912 3.78275 6.18826 4.65272 5.31263C5.52269 4.43699 6.40748 3.69601 7.58328 3.02216C9.12918 2.13623 10.8175 2.10585 12.3417 2.85866C13.6296 3.49476 14.1909 4.02802 15.061 4.90366C15.9309 5.77929 17.0438 7.03507 17.5614 8.11262C18.3157 9.68294 18.4432 10.9425 17.6864 12.58ZM17.2853 12.5657C17.9456 11.1373 17.8343 10.0385 17.1763 8.66872C16.7248 7.72873 15.7539 6.63329 14.9951 5.86943C14.2362 5.10561 13.728 4.67686 12.6231 4.08556C11.2356 3.34333 9.99403 3.21293 8.58772 4.08556C7.58301 4.70903 6.58715 5.424 5.82827 6.18782C5.0694 6.95164 4.55516 7.68786 4.0344 8.66872C3.29013 10.0705 3.43469 11.0682 3.98131 12.5702C4.27857 13.3868 5.10227 14.5188 5.8612 15.2826C6.62005 16.0465 7.52246 16.7368 8.58772 17.3135C9.65288 17.8901 10.941 18.3524 12.4867 17.4507C13.5374 16.8378 14.4543 16.0191 15.2133 15.2553C15.9721 14.4913 16.7603 13.7017 17.2853 12.5657Z" fill="white"/>
    </mask>
    <g mask="url(#mask6_1373_14439)">
        <path d="M-0.00344849 20.0023L55.5581 20.0023V0L-0.00344849 0L-0.00344849 20.0023Z" fill="#28ACD4"/>
    </g>
    <mask id="mask7_1373_14439" style="mask-type:luminance" maskUnits="userSpaceOnUse" x="1" y="1" width="19" height="18">
        <path fill-rule="evenodd" clip-rule="evenodd" d="M2.34321 12.1685C2.98539 13.5582 3.94974 14.5241 4.87798 15.4586C5.80641 16.3931 6.92809 17.3947 8.21353 18.1444C10.1044 19.2475 11.6801 18.6821 12.9833 17.9766C14.2863 17.2711 15.3903 16.4266 16.3187 15.4922C17.2471 14.5578 18.2548 13.173 18.6184 12.174C19.2871 10.3365 19.1511 9.18556 18.3945 7.48841C17.8353 6.23426 17.1803 5.34761 16.2519 4.41319C15.3235 3.47877 14.3793 2.68805 13.1246 1.96895C11.4749 1.02354 9.67325 0.991125 8.04671 1.79448C6.67236 2.47328 6.07334 3.04235 5.14488 3.97677C4.21658 4.91119 3.02891 6.25128 2.47658 7.40118C1.67159 9.07692 1.53554 10.4211 2.34321 12.1685ZM2.76673 12.145C2.06212 10.6207 2.18084 9.44816 2.88304 7.98638C3.36483 6.98328 4.40087 5.8143 5.21067 4.99915C6.02056 4.18405 6.56279 3.72651 7.74195 3.09552C9.22258 2.30346 10.5475 2.1643 12.0482 3.09552C13.1204 3.76085 14.1831 4.52382 14.9929 5.33892C15.8027 6.15402 16.3515 6.93967 16.9072 7.98638C17.7015 9.48225 17.5472 10.5469 16.9639 12.1498C16.6467 13.0212 15.7677 14.2292 14.9578 15.0443C14.148 15.8595 13.185 16.5961 12.0482 17.2115C10.9115 17.8269 9.53694 18.3202 7.88748 17.358C6.76622 16.7039 5.78772 15.8302 4.97783 15.0151C4.16811 14.1999 3.32691 13.3573 2.76673 12.145Z" fill="white"/>
    </mask>
    <g mask="url(#mask7_1373_14439)">
        <path d="M21.2165 20.0811L-38.0753 20.0811V-1.26416L21.2165 -1.26416V20.0811Z" fill="#28ACD4"/>
    </g>
</svg>
