<svg width="25" height="24" viewBox="0 0 25 24" fill="none" xmlns="http://www.w3.org/2000/svg">
<path d="M15.835 12.71C16.8154 11.9387 17.531 10.8809 17.8822 9.68394C18.2335 8.48697 18.2029 7.21027 17.7948 6.03147C17.3867 4.85267 16.6213 3.83039 15.6051 3.10686C14.5889 2.38332 13.3724 1.99451 12.125 1.99451C10.8775 1.99451 9.66111 2.38332 8.64493 3.10686C7.62874 3.83039 6.86334 4.85267 6.45521 6.03147C6.04708 7.21027 6.01651 8.48697 6.36776 9.68394C6.71901 10.8809 7.4346 11.9387 8.415 12.71C6.73507 13.383 5.26928 14.4994 4.17389 15.9399C3.07849 17.3805 2.39456 19.0913 2.195 20.89C2.18055 21.0213 2.19211 21.1542 2.22902 21.2811C2.26593 21.4079 2.32746 21.5263 2.41011 21.6293C2.57702 21.8375 2.81978 21.9708 3.085 22C3.35021 22.0292 3.61616 21.9518 3.82432 21.7849C4.03249 21.618 4.16582 21.3752 4.195 21.11C4.41458 19.1552 5.34668 17.3498 6.81322 16.0388C8.27975 14.7278 10.1779 14.003 12.145 14.003C14.1121 14.003 16.0102 14.7278 17.4768 16.0388C18.9433 17.3498 19.8754 19.1552 20.095 21.11C20.1222 21.3557 20.2394 21.5827 20.4241 21.747C20.6088 21.9114 20.8478 22.0015 21.095 22H21.205C21.4671 21.9698 21.7067 21.8373 21.8716 21.6313C22.0364 21.4252 22.1131 21.1624 22.085 20.9C21.8845 19.0962 21.1969 17.381 20.0958 15.9382C18.9948 14.4954 17.5219 13.3795 15.835 12.71ZM12.125 12C11.3339 12 10.5605 11.7654 9.90272 11.3259C9.24492 10.8864 8.73223 10.2616 8.42948 9.53074C8.12673 8.79983 8.04751 7.99557 8.20186 7.21964C8.3562 6.44372 8.73716 5.73099 9.29657 5.17158C9.85598 4.61217 10.5687 4.2312 11.3446 4.07686C12.1206 3.92252 12.9248 4.00173 13.6557 4.30448C14.3866 4.60724 15.0113 5.11993 15.4509 5.77772C15.8904 6.43552 16.125 7.20888 16.125 8C16.125 9.06087 15.7036 10.0783 14.9534 10.8284C14.2033 11.5786 13.1859 12 12.125 12Z" fill="#9AA6AC"/>
</svg>
