<svg width="20" height="22" viewBox="0 0 20 22" fill="none" xmlns="http://www.w3.org/2000/svg">
    <path d="M8.56565 20.3057L2.25042 15.3756C1.95111 15.142 1.89861 14.7099 2.13312 14.4109L12.4559 1.25048C12.6901 0.951898 13.122 0.899032 13.4209 1.13234L19.7361 6.06237C20.0354 6.296 20.0879 6.72807 19.8534 7.0271L9.53061 20.1875C9.29638 20.4861 8.86455 20.539 8.56565 20.3057Z" fill="#57AD7B"/>
    <path d="M4.57836 20.7089L0.116779 14.0606C-0.0947654 13.7454 -0.0102281 13.3183 0.305517 13.1068L14.2124 3.7961C14.5278 3.58496 14.9545 3.66897 15.1658 3.98383L19.6274 10.6321C19.8389 10.9473 19.7544 11.3744 19.4387 11.5859L5.53176 20.8966C5.21638 21.1077 4.78966 21.0237 4.57836 20.7089Z" fill="#81CDA1"/>
    <path d="M19.6274 10.6321L15.1659 3.98383C14.9546 3.66897 14.5279 3.58496 14.2125 3.7961L13.6713 4.15842L18.0157 10.6321C18.2273 10.9473 18.1427 11.3744 17.827 11.5859L4.46121 20.5343L4.57839 20.7089C4.78969 21.0237 5.21641 21.1077 5.53179 20.8966L19.4387 11.5859C19.7545 11.3744 19.839 10.9473 19.6274 10.6321Z" fill="#60BF88"/>
    <path d="M13.5315 12.5653C13.6489 10.5458 12.105 8.81346 10.0833 8.69596C8.06151 8.57847 6.3274 10.1203 6.21004 12.1398C6.09267 14.1593 7.63649 15.8916 9.65826 16.0091C11.68 16.1266 13.4141 14.5848 13.5315 12.5653Z" fill="#29795D"/>
    <path d="M2.20866 11.8328C3.12499 13.1982 2.75977 15.047 1.39291 15.9622L0.116225 14.0598C-0.0950374 13.745 -0.0102986 13.3184 0.305527 13.1069L2.20866 11.8328Z" fill="#29795D"/>
    <path d="M3.30518 18.8117C4.67494 17.8947 6.52666 18.2558 7.44106 19.6184L5.53264 20.8961C5.21685 21.1075 4.78957 21.0237 4.57831 20.7089L3.30518 18.8117Z" fill="#29795D"/>
    <path d="M17.5365 12.8613C16.6201 11.4959 16.9854 9.64706 18.3522 8.73193L19.6289 10.6343C19.8402 10.9491 19.7554 11.3757 19.4396 11.5871L17.5365 12.8613Z" fill="#29795D"/>
    <path d="M16.4399 5.88243C15.0702 6.79952 13.2184 6.43837 12.304 5.07578L14.2125 3.79809C14.5282 3.58666 14.9555 3.67048 15.1668 3.98525L16.4399 5.88243Z" fill="#29795D"/>
    <path d="M14.4746 9.56746C14.3771 9.56746 14.2815 9.5204 14.2232 9.43332C14.1304 9.29463 14.1675 9.10694 14.3062 9.01406L15.7289 8.06159C15.8676 7.96879 16.0553 8.0059 16.1482 8.14459C16.241 8.28329 16.2038 8.47098 16.0652 8.56385L14.6425 9.51633C14.5909 9.5509 14.5324 9.56746 14.4746 9.56746Z" fill="#29795D"/>
    <path d="M3.84755 16.6824C3.75007 16.6824 3.65446 16.6354 3.59615 16.5483C3.50331 16.4096 3.54046 16.2219 3.67916 16.1291L5.10178 15.1766C5.24044 15.0837 5.42813 15.1209 5.52104 15.2596C5.61388 15.3983 5.57673 15.586 5.43804 15.6788L4.01541 16.6313C3.96375 16.6659 3.90533 16.6824 3.84755 16.6824Z" fill="#29795D"/>
    <path d="M11.2845 13.9527C11.7203 13.5036 11.7345 12.8823 11.5362 12.4428C11.2773 11.869 10.7066 11.6017 10.0821 11.7619C10.007 11.7812 9.93001 11.8004 9.85248 11.8186L9.16688 10.797C9.33909 10.7411 9.47331 10.7557 9.48657 10.7573C9.65073 10.7809 9.803 10.6682 9.82827 10.5043C9.85377 10.3394 9.74071 10.185 9.57574 10.1595C9.55483 10.1563 9.21217 10.1076 8.82232 10.2836L8.68935 10.0855C8.59631 9.94693 8.40866 9.90994 8.27001 10.003C8.13144 10.096 8.09449 10.2837 8.18748 10.4223L8.3325 10.6385C8.30881 10.6638 8.28532 10.6901 8.26219 10.7181C7.99584 11.0416 7.93742 11.493 8.10984 11.896C8.26743 12.2644 8.58483 12.5095 8.93821 12.5355C9.11748 12.5487 9.31951 12.5357 9.57643 12.492L10.4587 13.8067C10.2838 13.9017 10.1432 13.9313 9.87916 13.9344C9.71226 13.9365 9.5786 14.0734 9.58066 14.2403C9.58263 14.4059 9.71754 14.5389 9.88274 14.5389H9.88649C10.2983 14.5339 10.5361 14.4604 10.7965 14.3101L10.9454 14.532C11.0037 14.619 11.0993 14.6659 11.1966 14.6659C11.2545 14.6659 11.3131 14.6493 11.3648 14.6146C11.5033 14.5216 11.5403 14.3339 11.4473 14.1953L11.2845 13.9527ZM8.98269 11.9328C8.85746 11.9236 8.73299 11.8159 8.66562 11.6583C8.60779 11.5232 8.58765 11.3302 8.6856 11.1645L9.19988 11.9308C9.12239 11.9365 9.04918 11.9377 8.98269 11.9328ZM10.2323 12.3474C10.7297 12.2199 10.9343 12.5785 10.9853 12.6914C11.0809 12.9033 11.0881 13.1909 10.9322 13.4275L10.211 12.3528C10.2182 12.351 10.225 12.3493 10.2323 12.3474Z" fill="#81CDA1"/>
</svg>
