<svg width="20" height="20" viewBox="0 0 20 20" fill="none" xmlns="http://www.w3.org/2000/svg">
    <g clip-path="url(#clip0_1373_14371)">
        <path d="M4.40491 12.2679V18.7531C4.3692 18.7545 4.3335 18.7549 4.29764 18.7549C4.26163 18.7549 4.22592 18.7545 4.19022 18.7531V12.2679C4.22592 12.2666 4.26163 12.2661 4.29764 12.2661C4.3335 12.2661 4.3692 12.2666 4.40491 12.2679Z" fill="url(#paint0_linear_1373_14371)"/>
        <path d="M7.54196 15.5103C7.54196 15.5464 7.5415 15.5821 7.54013 15.6178H1.05499C1.05362 15.5821 1.05316 15.5464 1.05316 15.5103C1.05316 15.4745 1.05362 15.4388 1.05499 15.4031H7.54013C7.5415 15.4388 7.54196 15.4745 7.54196 15.5103Z" fill="url(#paint1_linear_1373_14371)"/>
        <path d="M6.66626 13.2938L2.08084 17.8792C2.0285 17.8303 1.97769 17.7796 1.92886 17.7273L4.19022 15.4659L4.25308 15.4032L6.03516 13.6211L6.51428 13.1418C6.56662 13.1907 6.61743 13.2415 6.66626 13.2938Z" fill="url(#paint2_linear_1373_14371)"/>
        <path d="M6.66626 17.7273C6.61743 17.7796 6.56662 17.8304 6.51428 17.8792L6.03516 17.4L4.40491 15.7699L1.92886 13.2938C1.97769 13.2415 2.0285 13.1907 2.08084 13.1418L6.66626 17.7273Z" fill="url(#paint3_linear_1373_14371)"/>
        <path d="M4.29764 12.9539C2.88559 12.9539 1.74103 14.0984 1.74103 15.5105C1.74103 16.9224 2.88559 18.0671 4.29764 18.0671C5.70953 18.0671 6.8541 16.9224 6.8541 15.5105C6.8541 14.0984 5.70953 12.9539 4.29764 12.9539ZM4.29764 17.5333C3.18024 17.5333 2.27448 16.6277 2.27448 15.5103C2.27448 14.3931 3.18024 13.4873 4.29764 13.4873C5.41489 13.4873 6.32065 14.3931 6.32065 15.5103C6.32065 16.6277 5.41489 17.5333 4.29764 17.5333Z" fill="url(#paint4_linear_1373_14371)"/>
        <path d="M4.29764 12.2661C2.5058 12.2661 1.05331 13.7188 1.05331 15.5104C1.05331 17.3023 2.5058 18.7548 4.29764 18.7548C6.08932 18.7548 7.54181 17.3023 7.54181 15.5104C7.54181 13.7188 6.08932 12.2661 4.29764 12.2661ZM4.29764 17.8194C3.02246 17.8194 1.98868 16.7858 1.98868 15.5104C1.98868 14.2353 3.02231 13.2016 4.29764 13.2016C5.57281 13.2016 6.60645 14.2353 6.60645 15.5104C6.60645 16.7856 5.57281 17.8194 4.29764 17.8194Z" fill="url(#paint5_radial_1373_14371)"/>
        <path d="M5.75684 15.5106C5.75684 16.3166 5.10345 16.9698 4.29764 16.9698C3.49167 16.9698 2.83829 16.3166 2.83829 15.5106C2.83829 14.7047 3.49167 14.0513 4.29764 14.0513C5.10345 14.0513 5.75684 14.7047 5.75684 15.5106Z" fill="url(#paint6_linear_1373_14371)"/>
        <path d="M5.71869 15.8413L4.8587 14.9813C4.71802 14.8322 4.51874 14.739 4.29749 14.739C3.87131 14.739 3.52585 15.0845 3.52585 15.5105C3.52585 15.7318 3.61908 15.931 3.76831 16.0717L4.6283 16.9317C5.16861 16.8066 5.59341 16.3815 5.71869 15.8413Z" fill="url(#paint7_linear_1373_14371)"/>
        <path d="M5.06912 15.5107C5.06912 15.9367 4.72366 16.2821 4.29764 16.2821C3.87146 16.2821 3.526 15.9367 3.526 15.5107C3.526 15.0845 3.87146 14.739 4.29764 14.739C4.72366 14.739 5.06912 15.0845 5.06912 15.5107Z" fill="url(#paint8_radial_1373_14371)"/>
        <path d="M16.8629 12.2679V18.7531C16.8272 18.7545 16.7915 18.7549 16.7555 18.7549C16.7197 18.7549 16.6838 18.7545 16.6483 18.7531V12.2679C16.684 12.2666 16.7197 12.2661 16.7555 12.2661C16.7915 12.2661 16.8272 12.2666 16.8629 12.2679Z" fill="url(#paint9_linear_1373_14371)"/>
        <path d="M20 15.5103C20 15.5464 19.9994 15.5821 19.9982 15.6178H13.513C13.5117 15.5821 13.5112 15.5464 13.5112 15.5103C13.5112 15.4745 13.5117 15.4388 13.513 15.4031H19.9982C19.9994 15.4388 20 15.4745 20 15.5103Z" fill="url(#paint10_linear_1373_14371)"/>
        <path d="M19.1243 13.2938L16.6483 15.7699L15.018 17.4L14.5389 17.8792C14.4865 17.8303 14.4357 17.7796 14.3869 17.7273L16.4963 15.6179L16.6035 15.5105L16.6481 15.4659L16.711 15.4032L18.9723 13.1418C19.0247 13.1907 19.0755 13.2415 19.1243 13.2938Z" fill="url(#paint11_linear_1373_14371)"/>
        <path d="M19.1243 17.7273C19.0755 17.7796 19.0247 17.8304 18.9723 17.8792L14.3869 13.2938C14.4357 13.2415 14.4865 13.1907 14.5389 13.1418L15.018 13.6211L16.7557 15.3586L19.1243 17.7273Z" fill="url(#paint12_linear_1373_14371)"/>
        <path d="M16.7555 12.9539C15.3436 12.9539 14.1989 14.0984 14.1989 15.5105C14.1989 16.9224 15.3436 18.0671 16.7555 18.0671C18.1676 18.0671 19.3121 16.9224 19.3121 15.5105C19.3121 14.0984 18.1676 12.9539 16.7555 12.9539ZM16.7555 17.5333C15.6383 17.5333 14.7325 16.6277 14.7325 15.5103C14.7325 14.3931 15.6383 13.4873 16.7555 13.4873C17.8729 13.4873 18.7785 14.3931 18.7785 15.5103C18.7785 16.6277 17.8729 17.5333 16.7555 17.5333Z" fill="url(#paint13_linear_1373_14371)"/>
        <path d="M16.7555 12.2661C14.9638 12.2661 13.5112 13.7188 13.5112 15.5104C13.5112 17.3023 14.9638 18.7548 16.7555 18.7548C18.5474 18.7548 19.9998 17.3023 19.9998 15.5104C19.9998 13.7188 18.5474 12.2661 16.7555 12.2661ZM16.7555 17.8194C15.4803 17.8194 14.4466 16.7858 14.4466 15.5104C14.4466 14.2353 15.4803 13.2016 16.7555 13.2016C18.0309 13.2016 19.0645 14.2353 19.0645 15.5104C19.0645 16.7856 18.0307 17.8194 16.7555 17.8194Z" fill="url(#paint14_radial_1373_14371)"/>
        <path d="M18.2149 15.5106C18.2149 16.3166 17.5615 16.9698 16.7555 16.9698C15.9496 16.9698 15.2963 16.3166 15.2963 15.5106C15.2963 14.7047 15.9496 14.0513 16.7555 14.0513C17.5615 14.0513 18.2149 14.7047 18.2149 15.5106Z" fill="url(#paint15_linear_1373_14371)"/>
        <path d="M18.1767 15.8413L17.3167 14.9813C17.1761 14.8322 16.9768 14.739 16.7555 14.739C16.3293 14.739 15.9839 15.0845 15.9839 15.5105C15.9839 15.7318 16.0771 15.931 16.2263 16.0717L17.0863 16.9317C17.6265 16.8066 18.0515 16.3815 18.1767 15.8413Z" fill="url(#paint16_linear_1373_14371)"/>
        <path d="M17.5272 15.5107C17.5272 15.9367 17.1817 16.2821 16.7555 16.2821C16.3293 16.2821 15.9839 15.9367 15.9839 15.5107C15.9839 15.0845 16.3293 14.739 16.7555 14.739C17.1817 14.739 17.5272 15.0845 17.5272 15.5107Z" fill="url(#paint17_radial_1373_14371)"/>
        <path d="M13.726 14.2701V15.2582C13.6133 15.3957 13.4431 15.4819 13.2538 15.4819H5.52063V11.2871H7.05872V12.7707C7.05872 13.599 7.7298 14.2701 8.55804 14.2701H13.726Z" fill="url(#paint18_linear_1373_14371)"/>
        <path d="M7.05872 15.4821H0.999603C0.44754 15.4821 0 15.0345 0 14.4826V13.0342C0 10.6279 1.95068 8.67725 4.35715 8.67725H9.24927C9.24927 9.27386 8.86139 9.80136 8.29193 9.97913L8.04886 10.055C7.21039 10.3167 7.05872 11.0932 7.05872 11.9716V15.4821Z" fill="url(#paint19_linear_1373_14371)"/>
        <path d="M19.2239 12.5269C19.3646 12.8293 19.0404 13.1331 18.7437 12.9805C18.2036 12.7025 17.5909 12.5455 16.942 12.5455C15.9413 12.5455 15.0273 12.9184 14.332 13.5332V10.7744H16.476C17.693 10.7744 18.7424 11.4919 19.2239 12.5269Z" fill="url(#paint20_linear_1373_14371)"/>
        <path d="M15.8 10.7744H14.332V13.5332C15.0273 12.9184 15.9413 12.5455 16.942 12.5455C17.1773 12.5455 17.4077 12.5664 17.6317 12.6059L15.8 10.7744Z" fill="url(#paint21_linear_1373_14371)"/>
        <path d="M15.8719 11.2551C15.9666 11.7334 15.7721 12.2228 15.3743 12.5048C14.5766 13.0703 14.0138 13.9454 13.8612 14.9549C13.844 15.0699 13.7959 15.1738 13.726 15.2582C13.6133 15.3957 13.4431 15.4819 13.2538 15.4819H11.9548V6.98185C11.9548 6.48197 12.3563 6.06983 12.8561 6.06694C13.4351 6.06358 13.9745 6.26683 14.3958 6.6132C14.8143 6.95713 15.1167 7.44099 15.2283 8.00404L15.8719 11.2551Z" fill="url(#paint22_linear_1373_14371)"/>
        <path d="M12.3222 6.18365H10.4922C10.2576 6.18365 10.0673 5.99338 10.0673 5.75854V5.51334C10.0673 5.27866 10.2576 5.08838 10.4922 5.08838H12.3222C12.5569 5.08838 12.7472 5.27866 12.7472 5.51334V5.75854C12.7472 5.99338 12.5569 6.18365 12.3222 6.18365Z" fill="url(#paint23_linear_1373_14371)"/>
        <path d="M15.2283 8.00404C15.1167 7.44099 14.8143 6.95728 14.3958 6.6132C13.9745 6.26697 13.4351 6.06373 12.8561 6.06693C12.6215 6.06831 12.4092 6.16062 12.2493 6.30909L15.5452 9.60499L15.2283 8.00404Z" fill="url(#paint24_linear_1373_14371)"/>
        <path d="M14.9817 5.00662C14.9817 4.12375 14.6977 3.40796 14.3474 3.40796C13.9972 3.40796 13.7132 4.12375 13.7132 5.00662C13.7132 5.88965 13.9972 6.60529 14.3474 6.60529C14.6977 6.60529 14.9817 5.88965 14.9817 5.00662Z" fill="url(#paint25_linear_1373_14371)"/>
        <path d="M14.2284 6.7197H13.3197C12.4371 6.7197 11.7218 6.00421 11.7218 5.1218V4.89169C11.7218 4.00928 12.4371 3.29395 13.3197 3.29395H14.2284C14.3886 3.29395 14.5183 3.42365 14.5183 3.58386V6.42978C14.5183 6.58984 14.3886 6.7197 14.2284 6.7197Z" fill="url(#paint26_linear_1373_14371)"/>
        <path d="M4.50058 7.09253H8.66898C9.15253 7.09253 9.54453 7.48453 9.54453 7.96808V8.38876C9.54453 8.54807 9.41528 8.67731 9.25598 8.67731H3.91357C3.75427 8.67731 3.62518 8.54807 3.62518 8.38876V7.96808C3.62518 7.48453 4.01703 7.09253 4.50058 7.09253Z" fill="url(#paint27_linear_1373_14371)"/>
        <path d="M6.84479 15.4821C6.92719 15.319 6.99875 15.1496 7.05872 14.9749V12.3539C6.51443 10.7662 5.00885 9.625 3.23669 9.625C3.22815 9.625 3.2196 9.625 3.21091 9.625C1.57364 9.63522 0.224915 10.8871 0.0309754 12.5129C0.0105286 12.6838 0 12.8579 0 13.0343V14.4826C0 15.0345 0.44754 15.4821 0.999603 15.4821H6.84479Z" fill="url(#paint28_linear_1373_14371)"/>
        <path d="M4.23111 13.3535H1.93176C1.69144 13.3535 1.49673 13.1588 1.49673 12.9184C1.49673 12.6783 1.69144 12.4834 1.93176 12.4834H4.23111C4.47128 12.4834 4.66614 12.6781 4.66614 12.9184C4.66614 13.1588 4.47128 13.3535 4.23111 13.3535Z" fill="url(#paint29_linear_1373_14371)"/>
        <path d="M4.23111 14.4567H1.93176C1.69144 14.4567 1.49673 14.262 1.49673 14.0217C1.49673 13.7815 1.69144 13.5867 1.93176 13.5867H4.23111C4.47128 13.5867 4.66614 13.7815 4.66614 14.0217C4.66614 14.262 4.47128 14.4567 4.23111 14.4567Z" fill="url(#paint30_linear_1373_14371)"/>
        <path d="M6.64688 7.09244L1.41495 7.09167C1.24664 7.09167 1.11008 6.95511 1.11023 6.7868L1.11084 1.55487C1.11099 1.38641 1.24741 1.25 1.41586 1.25L6.6478 1.25076C6.81625 1.25076 6.95267 1.38733 6.95267 1.55563L6.9519 6.78772C6.9519 6.95602 6.81534 7.09244 6.64688 7.09244Z" fill="url(#paint31_linear_1373_14371)"/>
        <path d="M3.15201 3.42401L6.20743 6.48019L6.26511 6.53131C6.33209 6.59067 6.4328 6.59067 6.49979 6.53146L6.49994 6.53131C6.56693 6.47195 6.66763 6.47195 6.73462 6.53131C6.79596 6.58578 6.88583 6.59021 6.9519 6.54474L6.95236 3.23251L4.97086 1.2504L3.0928 1.25024L3.0925 3.29141C3.0925 3.34207 3.11417 3.39044 3.15201 3.42401Z" fill="url(#paint32_linear_1373_14371)"/>
        <path d="M4.97086 1.25055L4.97055 3.29172C4.97055 3.34238 4.94888 3.39059 4.91089 3.42416L4.85291 3.47543C4.78607 3.53479 4.68536 3.53464 4.61838 3.47543L4.61823 3.47528C4.55124 3.41592 4.45053 3.41592 4.38354 3.47528C4.31656 3.53464 4.21585 3.53464 4.14886 3.47528L4.14871 3.47513C4.08173 3.41577 3.98102 3.41592 3.91403 3.47513C3.84705 3.53448 3.74634 3.53448 3.67935 3.47513C3.61237 3.41577 3.51166 3.41577 3.44467 3.47498L3.44452 3.47513C3.37753 3.53448 3.27682 3.53448 3.20984 3.47513L3.15216 3.42386C3.11417 3.39029 3.0925 3.34207 3.0925 3.29141L3.0928 1.25024L4.97086 1.25055Z" fill="url(#paint33_linear_1373_14371)"/>
        <path d="M1.11038 5.14868L1.11023 6.78671C1.11008 6.95517 1.24664 7.09158 1.41495 7.09174L6.64688 7.09235C6.81534 7.0925 6.9519 6.95593 6.9519 6.78763L6.95206 5.14944L1.11038 5.14868Z" fill="url(#paint34_linear_1373_14371)"/>
        <path d="M1.58295 6.24756H2.8717V6.61911H1.58295V6.24756Z" fill="url(#paint35_linear_1373_14371)"/>
        <path d="M1.5831 5.45947H3.62778V5.83102H1.5831V5.45947Z" fill="url(#paint36_linear_1373_14371)"/>
    </g>
    <defs>
        <linearGradient id="paint0_linear_1373_14371" x1="4.19018" y1="15.5105" x2="4.40495" y2="15.5105" gradientUnits="userSpaceOnUse">
            <stop stop-color="#575C55"/>
            <stop offset="1" stop-color="#45425A"/>
        </linearGradient>
        <linearGradient id="paint1_linear_1373_14371" x1="1.05313" y1="15.5104" x2="7.542" y2="15.5104" gradientUnits="userSpaceOnUse">
            <stop stop-color="#575C55"/>
            <stop offset="1" stop-color="#45425A"/>
        </linearGradient>
        <linearGradient id="paint2_linear_1373_14371" x1="1.92888" y1="15.5106" x2="6.66626" y2="15.5106" gradientUnits="userSpaceOnUse">
            <stop stop-color="#575C55"/>
            <stop offset="1" stop-color="#45425A"/>
        </linearGradient>
        <linearGradient id="paint3_linear_1373_14371" x1="1.92888" y1="15.5106" x2="6.66626" y2="15.5106" gradientUnits="userSpaceOnUse">
            <stop stop-color="#575C55"/>
            <stop offset="1" stop-color="#45425A"/>
        </linearGradient>
        <linearGradient id="paint4_linear_1373_14371" x1="4.00115" y1="15.214" x2="7.83605" y2="19.0489" gradientUnits="userSpaceOnUse">
            <stop stop-color="#FFD459"/>
            <stop offset="0.2296" stop-color="#FFD355"/>
            <stop offset="0.4362" stop-color="#FFCF4A"/>
            <stop offset="0.634" stop-color="#FFC838"/>
            <stop offset="0.825" stop-color="#FFBF1F"/>
            <stop offset="1" stop-color="#FFB400"/>
        </linearGradient>
        <radialGradient id="paint5_radial_1373_14371" cx="0" cy="0" r="1" gradientUnits="userSpaceOnUse" gradientTransform="translate(4.18786 15.2911) scale(3.24432)">
            <stop stop-color="#45425A"/>
            <stop offset="0.4759" stop-color="#424059"/>
            <stop offset="0.7742" stop-color="#3A3B56"/>
            <stop offset="1" stop-color="#2D3251"/>
        </radialGradient>
        <linearGradient id="paint6_linear_1373_14371" x1="2.83828" y1="15.5106" x2="5.75686" y2="15.5106" gradientUnits="userSpaceOnUse">
            <stop stop-color="#C6E56F"/>
            <stop offset="0.3371" stop-color="#C4E56F"/>
            <stop offset="0.4953" stop-color="#BCE36E"/>
            <stop offset="0.6162" stop-color="#AFE16D"/>
            <stop offset="0.7182" stop-color="#9DDD6B"/>
            <stop offset="0.8083" stop-color="#85D968"/>
            <stop offset="0.8899" stop-color="#68D365"/>
            <stop offset="0.9635" stop-color="#46CD61"/>
            <stop offset="1" stop-color="#32C95F"/>
        </linearGradient>
        <linearGradient id="paint7_linear_1373_14371" x1="5.70243" y1="16.9154" x2="4.37856" y2="15.5916" gradientUnits="userSpaceOnUse">
            <stop offset="0.0029" stop-color="#00E7B2" stop-opacity="0"/>
            <stop offset="0.4308" stop-color="#1BC4B7" stop-opacity="0.427451"/>
            <stop offset="1" stop-color="#3B9ABE"/>
        </linearGradient>
        <radialGradient id="paint8_radial_1373_14371" cx="0" cy="0" r="1" gradientUnits="userSpaceOnUse" gradientTransform="translate(4.29757 15.5106) scale(0.771596)">
            <stop stop-color="#45425A"/>
            <stop offset="0.4759" stop-color="#424059"/>
            <stop offset="0.7742" stop-color="#3A3B56"/>
            <stop offset="1" stop-color="#2D3251"/>
        </radialGradient>
        <linearGradient id="paint9_linear_1373_14371" x1="16.6482" y1="15.5105" x2="16.863" y2="15.5105" gradientUnits="userSpaceOnUse">
            <stop stop-color="#575C55"/>
            <stop offset="1" stop-color="#45425A"/>
        </linearGradient>
        <linearGradient id="paint10_linear_1373_14371" x1="13.5111" y1="15.5104" x2="20" y2="15.5104" gradientUnits="userSpaceOnUse">
            <stop stop-color="#575C55"/>
            <stop offset="1" stop-color="#45425A"/>
        </linearGradient>
        <linearGradient id="paint11_linear_1373_14371" x1="14.3869" y1="15.5106" x2="19.1243" y2="15.5106" gradientUnits="userSpaceOnUse">
            <stop stop-color="#575C55"/>
            <stop offset="1" stop-color="#45425A"/>
        </linearGradient>
        <linearGradient id="paint12_linear_1373_14371" x1="14.3869" y1="15.5106" x2="19.1243" y2="15.5106" gradientUnits="userSpaceOnUse">
            <stop stop-color="#575C55"/>
            <stop offset="1" stop-color="#45425A"/>
        </linearGradient>
        <linearGradient id="paint13_linear_1373_14371" x1="16.4592" y1="15.214" x2="20.2941" y2="19.0489" gradientUnits="userSpaceOnUse">
            <stop stop-color="#FFD459"/>
            <stop offset="0.2296" stop-color="#FFD355"/>
            <stop offset="0.4362" stop-color="#FFCF4A"/>
            <stop offset="0.634" stop-color="#FFC838"/>
            <stop offset="0.825" stop-color="#FFBF1F"/>
            <stop offset="1" stop-color="#FFB400"/>
        </linearGradient>
        <radialGradient id="paint14_radial_1373_14371" cx="0" cy="0" r="1" gradientUnits="userSpaceOnUse" gradientTransform="translate(16.6459 15.2911) scale(3.24432)">
            <stop stop-color="#45425A"/>
            <stop offset="0.4759" stop-color="#424059"/>
            <stop offset="0.7742" stop-color="#3A3B56"/>
            <stop offset="1" stop-color="#2D3251"/>
        </radialGradient>
        <linearGradient id="paint15_linear_1373_14371" x1="15.2963" y1="15.5106" x2="18.2149" y2="15.5106" gradientUnits="userSpaceOnUse">
            <stop stop-color="#C6E56F"/>
            <stop offset="0.3371" stop-color="#C4E56F"/>
            <stop offset="0.4953" stop-color="#BCE36E"/>
            <stop offset="0.6162" stop-color="#AFE16D"/>
            <stop offset="0.7182" stop-color="#9DDD6B"/>
            <stop offset="0.8083" stop-color="#85D968"/>
            <stop offset="0.8899" stop-color="#68D365"/>
            <stop offset="0.9635" stop-color="#46CD61"/>
            <stop offset="1" stop-color="#32C95F"/>
        </linearGradient>
        <linearGradient id="paint16_linear_1373_14371" x1="18.1604" y1="16.9154" x2="16.8366" y2="15.5916" gradientUnits="userSpaceOnUse">
            <stop offset="0.0029" stop-color="#00E7B2" stop-opacity="0"/>
            <stop offset="0.4308" stop-color="#1BC4B7" stop-opacity="0.427451"/>
            <stop offset="1" stop-color="#3B9ABE"/>
        </linearGradient>
        <radialGradient id="paint17_radial_1373_14371" cx="0" cy="0" r="1" gradientUnits="userSpaceOnUse" gradientTransform="translate(16.7556 15.5106) scale(0.771596)">
            <stop stop-color="#45425A"/>
            <stop offset="0.4759" stop-color="#424059"/>
            <stop offset="0.7742" stop-color="#3A3B56"/>
            <stop offset="1" stop-color="#2D3251"/>
        </radialGradient>
        <linearGradient id="paint18_linear_1373_14371" x1="11.2963" y1="12.4528" x2="7.53687" y2="14.3606" gradientUnits="userSpaceOnUse">
            <stop stop-color="#FF6E3A"/>
            <stop offset="0.1596" stop-color="#FF6440"/>
            <stop offset="0.4266" stop-color="#FF4B52"/>
            <stop offset="0.7662" stop-color="#FF216E"/>
            <stop offset="1" stop-color="#FF0084"/>
        </linearGradient>
        <linearGradient id="paint19_linear_1373_14371" x1="2.13994" y1="9.30219" x2="8.28618" y2="15.4484" gradientUnits="userSpaceOnUse">
            <stop stop-color="#FF6E3A"/>
            <stop offset="0.1596" stop-color="#FF6440"/>
            <stop offset="0.4266" stop-color="#FF4B52"/>
            <stop offset="0.7662" stop-color="#FF216E"/>
            <stop offset="1" stop-color="#FF0084"/>
        </linearGradient>
        <linearGradient id="paint20_linear_1373_14371" x1="16.7949" y1="11.7299" x2="16.7949" y2="13.1748" gradientUnits="userSpaceOnUse">
            <stop stop-color="#FF6E3A"/>
            <stop offset="0.1596" stop-color="#FF6440"/>
            <stop offset="0.4266" stop-color="#FF4B52"/>
            <stop offset="0.7662" stop-color="#FF216E"/>
            <stop offset="1" stop-color="#FF0084"/>
        </linearGradient>
        <linearGradient id="paint21_linear_1373_14371" x1="16.6486" y1="13.7364" x2="14.5052" y2="11.593" gradientUnits="userSpaceOnUse">
            <stop stop-color="#E58200" stop-opacity="0"/>
            <stop offset="0.2413" stop-color="#DA760F" stop-opacity="0.243137"/>
            <stop offset="0.7044" stop-color="#BC5737" stop-opacity="0.705882"/>
            <stop offset="1" stop-color="#A64153"/>
        </linearGradient>
        <linearGradient id="paint22_linear_1373_14371" x1="16.6129" y1="8.84406" x2="9.15547" y2="12.8524" gradientUnits="userSpaceOnUse">
            <stop stop-color="#FF6E3A"/>
            <stop offset="0.1596" stop-color="#FF6440"/>
            <stop offset="0.4266" stop-color="#FF4B52"/>
            <stop offset="0.7662" stop-color="#FF216E"/>
            <stop offset="1" stop-color="#FF0084"/>
        </linearGradient>
        <linearGradient id="paint23_linear_1373_14371" x1="11.4072" y1="5.34468" x2="11.4072" y2="5.9506" gradientUnits="userSpaceOnUse">
            <stop stop-color="#45425A"/>
            <stop offset="0.4759" stop-color="#424059"/>
            <stop offset="0.7742" stop-color="#3A3B56"/>
            <stop offset="1" stop-color="#2D3251"/>
        </linearGradient>
        <linearGradient id="paint24_linear_1373_14371" x1="16.1045" y1="9.23495" x2="13.351" y2="6.48148" gradientUnits="userSpaceOnUse">
            <stop stop-color="#E58200" stop-opacity="0"/>
            <stop offset="0.2413" stop-color="#DA760F" stop-opacity="0.243137"/>
            <stop offset="0.7044" stop-color="#BC5737" stop-opacity="0.705882"/>
            <stop offset="1" stop-color="#A64153"/>
        </linearGradient>
        <linearGradient id="paint25_linear_1373_14371" x1="13.7132" y1="5.00665" x2="14.9817" y2="5.00665" gradientUnits="userSpaceOnUse">
            <stop stop-color="#FFD459"/>
            <stop offset="0.2296" stop-color="#FFD355"/>
            <stop offset="0.4362" stop-color="#FFCF4A"/>
            <stop offset="0.634" stop-color="#FFC838"/>
            <stop offset="0.825" stop-color="#FFBF1F"/>
            <stop offset="1" stop-color="#FFB400"/>
        </linearGradient>
        <linearGradient id="paint26_linear_1373_14371" x1="13.1601" y1="4.57932" x2="14.1818" y2="7.58905" gradientUnits="userSpaceOnUse">
            <stop stop-color="#FF6E3A"/>
            <stop offset="0.1596" stop-color="#FF6440"/>
            <stop offset="0.4266" stop-color="#FF4B52"/>
            <stop offset="0.7662" stop-color="#FF216E"/>
            <stop offset="1" stop-color="#FF0084"/>
        </linearGradient>
        <linearGradient id="paint27_linear_1373_14371" x1="6.58481" y1="7.58973" x2="6.58481" y2="8.36794" gradientUnits="userSpaceOnUse">
            <stop stop-color="#45425A"/>
            <stop offset="0.4759" stop-color="#424059"/>
            <stop offset="0.7742" stop-color="#3A3B56"/>
            <stop offset="1" stop-color="#2D3251"/>
        </linearGradient>
        <linearGradient id="paint28_linear_1373_14371" x1="3.45821" y1="13.3496" x2="1.49113" y2="9.10812" gradientUnits="userSpaceOnUse">
            <stop stop-color="#E58200" stop-opacity="0"/>
            <stop offset="0.2413" stop-color="#DA760F" stop-opacity="0.243137"/>
            <stop offset="0.7044" stop-color="#BC5737" stop-opacity="0.705882"/>
            <stop offset="1" stop-color="#A64153"/>
        </linearGradient>
        <linearGradient id="paint29_linear_1373_14371" x1="3.08139" y1="13.7108" x2="3.08139" y2="12.3422" gradientUnits="userSpaceOnUse">
            <stop stop-color="#E58200" stop-opacity="0"/>
            <stop offset="0.2413" stop-color="#DA760F" stop-opacity="0.243137"/>
            <stop offset="0.7044" stop-color="#BC5737" stop-opacity="0.705882"/>
            <stop offset="1" stop-color="#A64153"/>
        </linearGradient>
        <linearGradient id="paint30_linear_1373_14371" x1="3.08139" y1="14.8141" x2="3.08139" y2="13.4455" gradientUnits="userSpaceOnUse">
            <stop stop-color="#E58200" stop-opacity="0"/>
            <stop offset="0.2413" stop-color="#DA760F" stop-opacity="0.243137"/>
            <stop offset="0.7044" stop-color="#BC5737" stop-opacity="0.705882"/>
            <stop offset="1" stop-color="#A64153"/>
        </linearGradient>
        <linearGradient id="paint31_linear_1373_14371" x1="3.88162" y1="4.17123" x2="8.95998" y2="4.17194" gradientUnits="userSpaceOnUse">
            <stop stop-color="#FFD459"/>
            <stop offset="0.2296" stop-color="#FFD355"/>
            <stop offset="0.4362" stop-color="#FFCF4A"/>
            <stop offset="0.634" stop-color="#FFC838"/>
            <stop offset="0.825" stop-color="#FFBF1F"/>
            <stop offset="1" stop-color="#FFB400"/>
        </linearGradient>
        <linearGradient id="paint32_linear_1373_14371" x1="6.14697" y1="4.42353" x2="3.03944" y2="1.31513" gradientUnits="userSpaceOnUse">
            <stop stop-color="#E58200" stop-opacity="0"/>
            <stop offset="0.1923" stop-color="#DE7B09" stop-opacity="0.192157"/>
            <stop offset="0.5014" stop-color="#CD6920" stop-opacity="0.501961"/>
            <stop offset="0.8866" stop-color="#B04B46" stop-opacity="0.886275"/>
            <stop offset="1" stop-color="#A64153"/>
        </linearGradient>
        <linearGradient id="paint33_linear_1373_14371" x1="3.47596" y1="1.3389" x2="4.95267" y2="3.87922" gradientUnits="userSpaceOnUse">
            <stop stop-color="#FF6E3A"/>
            <stop offset="0.1596" stop-color="#FF6440"/>
            <stop offset="0.4266" stop-color="#FF4B52"/>
            <stop offset="0.7662" stop-color="#FF216E"/>
            <stop offset="1" stop-color="#FF0084"/>
        </linearGradient>
        <linearGradient id="paint34_linear_1373_14371" x1="4.03111" y1="6.17009" x2="4.03092" y2="7.50731" gradientUnits="userSpaceOnUse">
            <stop stop-color="#FFE600" stop-opacity="0"/>
            <stop offset="1" stop-color="#F59500"/>
        </linearGradient>
        <linearGradient id="paint35_linear_1373_14371" x1="1.583" y1="6.43327" x2="2.87176" y2="6.43327" gradientUnits="userSpaceOnUse">
            <stop stop-color="#45425A"/>
            <stop offset="0.4759" stop-color="#424059"/>
            <stop offset="0.7742" stop-color="#3A3B56"/>
            <stop offset="1" stop-color="#2D3251"/>
        </linearGradient>
        <linearGradient id="paint36_linear_1373_14371" x1="1.58311" y1="5.64522" x2="3.62788" y2="5.64522" gradientUnits="userSpaceOnUse">
            <stop stop-color="#45425A"/>
            <stop offset="0.4759" stop-color="#424059"/>
            <stop offset="0.7742" stop-color="#3A3B56"/>
            <stop offset="1" stop-color="#2D3251"/>
        </linearGradient>
        <clipPath id="clip0_1373_14371">
            <rect width="20" height="20" fill="white"/>
        </clipPath>
    </defs>
</svg>
