<svg width="18" height="18" viewBox="0 0 18 18" fill="none" xmlns="http://www.w3.org/2000/svg">
    <path d="M16.4986 13.3117C16.7504 13.6792 16.7758 14.2583 16.5083 14.7072C16.2697 15.108 14.8403 16.6463 14.3752 17.1406C13.972 17.5701 13.4278 18.0001 12.8919 18.0001H1.677C0.161302 18.0001 0.0697632 17.4764 0.0697632 16.2923V11.4895C0.0697632 10.2801 0.419974 9.93066 1.45503 9.93066H12.892C13.4278 9.93066 13.9045 10.2094 14.4519 10.7766C14.9165 11.2583 16.3052 13.0289 16.4986 13.3117Z" fill="#33CCCC"/>
    <path d="M2.61229 11.7904C2.61229 11.7565 2.61229 11.792 2.61229 11.7587C2.61229 11.6042 2.59958 11.4517 2.35131 11.4517H1.41397C1.19618 11.4517 1.18234 11.5745 1.18234 11.7651V13.0344C1.63868 12.3697 2.14449 12.0608 2.61229 11.7904Z" fill="white"/>
    <path d="M8.90046 16.3747V16.3066H8.90108V13.2516C8.90108 11.9703 8.34828 11.3301 7.24275 11.3301C6.926 11.3301 6.63617 11.4108 6.37339 11.5724C6.11023 11.734 5.85767 11.96 5.61495 12.2497C5.49574 11.9348 5.31603 11.7029 5.07561 11.5538C4.8352 11.4046 4.52375 11.3303 4.14157 11.3303C3.69888 11.3303 3.18429 11.4884 2.81962 11.7941C2.73798 11.8773 1.1826 13.1251 1.1826 14.4066C1.1826 15.1091 1.1826 15.8549 1.1826 15.8549C1.1826 15.8549 1.1826 16.3506 1.1826 16.3626C1.1826 16.4248 1.15306 16.6609 1.4126 16.6609H2.38821C2.69156 16.6609 2.6619 16.4585 2.6619 16.3752C2.6619 16.3548 2.6619 15.8429 2.6619 15.8429V13.2113C2.82647 12.9887 3.1631 12.4388 3.70966 12.4388C3.91942 12.4388 4.07059 12.5113 4.16288 12.6558C4.25555 12.8004 4.30203 13.0434 4.30203 13.3837V15.8543H4.30091C4.30091 15.8543 4.30091 16.3501 4.30091 16.3621C4.30091 16.4243 4.27137 16.6604 4.53092 16.6604H5.49431C5.79785 16.6604 5.76818 16.458 5.76818 16.3747V16.3066H5.76931V13.2113C5.94572 12.9887 6.29743 12.4388 6.81695 12.4388C7.03082 12.4388 7.18498 12.5113 7.27958 12.6558C7.37386 12.8004 7.42103 13.0434 7.42103 13.3837V15.8543H7.42003C7.42003 15.8543 7.42003 16.3501 7.42003 16.3621C7.42003 16.4243 7.39068 16.6604 7.65023 16.6604H8.62608C8.93012 16.6604 8.90046 16.458 8.90046 16.3747Z" fill="white"/>
    <path fill-rule="evenodd" clip-rule="evenodd" d="M12.0663 16.6164C13.0959 16.6164 13.9271 16.0849 14.2741 15.1336C14.2974 15.0702 14.2383 14.9378 14.1055 14.9379H13.2904C13.2904 14.9379 13.0905 14.9288 12.9929 15.0918C12.7684 15.4661 12.5109 15.6572 12.0761 15.6572C11.3632 15.6572 10.9594 15.1967 10.9406 14.3431H14.1055C14.3548 14.3431 14.4132 14.1635 14.4056 13.9601C14.3462 12.3681 13.412 11.3799 12.0196 11.3799C10.6121 11.3799 9.58936 12.4924 9.58936 14.0271C9.58936 15.5807 10.5744 16.6164 12.0663 16.6164ZM10.9403 13.4791C11.0153 12.7882 11.4282 12.3662 12.0196 12.3662C12.6856 12.3662 13.0047 12.8747 13.0611 13.4791H10.9403Z" fill="white"/>
    <path fill-rule="evenodd" clip-rule="evenodd" d="M5.82548 1.04347C5.69013 0.828956 5.53067 0.655393 5.34652 0.521706C5.16239 0.388393 4.95494 0.282413 4.72412 0.203367C4.49362 0.125026 4.24056 0.0713974 3.96537 0.0427983C3.69038 0.0141367 3.39438 0 3.0775 0H0.479212C0.245592 0 0.000755311 0.156365 0.000755311 0.451326V4.74471C0.329839 5.46023 0.971064 6.21996 1.69997 6.58294V5.73143C1.69997 5.28215 2.03204 5.18171 2.16939 5.18171H2.93754C3.99572 5.18171 4.80326 4.95521 5.36042 4.50243C5.91752 4.05015 6.19601 3.37806 6.19601 2.48706C6.19601 2.21561 6.16684 1.96077 6.10877 1.7225C6.05019 1.48435 5.9559 1.25786 5.82548 1.04347ZM4.31178 3.25045C4.21632 3.41478 4.08807 3.53745 3.9273 3.61853C3.7664 3.69974 3.58107 3.74948 3.37151 3.76866C3.16163 3.7877 2.94483 3.79732 2.72106 3.79732H1.99098C1.81238 3.79732 1.70015 3.64917 1.70015 3.43064V1.67534C1.70015 1.47853 1.82609 1.39592 1.97714 1.39592H2.72106C2.96341 1.39592 3.1906 1.40318 3.40285 1.41732C3.6151 1.43146 3.79905 1.477 3.95534 1.5533C4.11163 1.6296 4.23383 1.74623 4.32268 1.90348C4.41105 2.06055 4.45542 2.28233 4.45542 2.56799C4.45503 2.85849 4.40737 3.086 4.31178 3.25045ZM0.000574319 5.75739C0.360695 6.14343 0.898161 6.53272 1.69979 6.85934H1.69977L1.6996 7.83001C1.6996 7.83001 1.73798 8.16809 1.42703 8.16809H0.293579C-0.029275 8.16809 0.000574319 7.83001 0.000574319 7.83001V5.75739ZM17.7633 2.25932H16.746C16.5392 2.25932 16.4031 2.34779 16.321 2.5795C16.2385 2.81122 15.1607 5.87152 15.1607 5.87152C15.1607 5.87152 14.1293 2.8744 14.0481 2.64237C13.9674 2.41033 13.8336 2.25932 13.5934 2.25932H12.6589C12.3291 2.25932 12.3291 2.5232 12.37 2.62804C12.4031 2.71262 13.6832 6.28813 14.1708 7.65007C14.194 7.71501 14.2144 7.77079 14.2321 7.81943C14.3023 8.01159 14.3319 8.09241 14.3347 8.1875C14.3385 8.30699 14.2194 8.55673 14.1373 8.70029C14.0967 8.77105 14.0532 8.83092 14.0079 8.88564C14.9637 8.59412 16.0653 7.5358 16.635 6.38934C17.1982 4.79173 17.9411 2.68122 17.9733 2.5732C18.0251 2.39874 18.0245 2.25932 17.7633 2.25932ZM13.0073 9.16828C13.0954 9.18007 13.1832 9.18561 13.2715 9.18764C14.5522 9.31408 15.8747 8.03602 16.155 7.74756L16.0069 8.16787C15.8765 8.5204 15.7399 8.84332 15.598 9.13618C15.4557 9.42904 15.2938 9.68152 15.1121 9.89349C14.9302 10.1055 14.7203 10.271 14.4826 10.3901C14.2449 10.5092 13.9651 10.5689 13.6437 10.5689C13.37 10.5689 13.1295 10.5451 12.9217 10.4977L12.9129 10.4958C12.8325 10.4779 12.6995 10.4482 12.6995 10.1538V9.35331C12.6995 9.17421 12.9001 9.15376 13.0073 9.16828ZM11.7437 3.20743C11.6832 3.06451 11.6085 2.94216 11.5203 2.83936C11.4315 2.73707 11.3268 2.64554 11.2054 2.56414C11.075 2.47822 10.9422 2.40809 10.8071 2.35313C10.6718 2.29886 10.5261 2.25338 10.37 2.21746C10.2139 2.18154 10.0425 2.15664 9.85626 2.1425C9.66963 2.12835 9.45988 2.12109 9.22676 2.12109C7.68564 2.12109 6.80837 2.61739 6.59419 3.61016C6.52458 3.91824 6.8237 3.9364 6.8237 3.9364H7.77176C7.97785 3.9364 8.005 3.88009 8.0776 3.7295C8.09219 3.69924 8.10861 3.66517 8.1287 3.62698C8.17319 3.50125 8.24791 3.3973 8.35278 3.31456C8.53481 3.17164 8.8075 3.10037 9.17092 3.10037C9.52063 3.10037 9.7747 3.16948 9.93316 3.3075C10.0918 3.44571 10.1849 3.65532 10.2128 3.9364C10.2128 4.26263 10.113 4.4802 9.72602 4.4802C8.78264 4.4453 7.76895 4.55421 7.19796 4.88771C6.62666 5.2212 6.30399 5.87354 6.30399 6.5739C6.30399 6.85956 6.35409 7.10981 6.45435 7.32433C6.55443 7.53853 6.69427 7.71833 6.87399 7.86374C7.0532 8.00915 7.26657 8.11756 7.51371 8.18896C7.76067 8.26042 8.03111 8.29628 8.32474 8.29628C8.73497 8.29628 9.0977 8.24354 9.41227 8.1389C9.72684 8.03425 10.2137 7.68897 10.2757 7.63859V7.82259C10.2757 8.00495 10.3301 8.16756 10.5436 8.16756L11.6461 8.16769C11.8693 8.16769 11.9188 8.00508 11.9188 7.80503V4.34416C11.9188 4.10131 11.9049 3.88666 11.8769 3.70106C11.8486 3.51483 11.8042 3.35069 11.7437 3.20744V3.20743ZM8.94008 7.20416C9.95606 7.20416 10.2408 6.6015 10.2408 6.6015C10.2408 6.6015 10.2408 5.98961 10.2407 5.91987C10.2407 5.73031 10.1286 5.45593 9.7022 5.44567C9.27584 5.43542 8.70684 5.51847 8.42262 5.66357C8.13821 5.80917 7.99594 6.05795 7.99594 6.41081C7.99594 6.68246 8.08349 6.88251 8.25829 7.01124C8.43327 7.13996 8.6606 7.20416 8.94008 7.20416Z" fill="#333333"/>
</svg>
